<mxfile host="app.diagrams.net" modified="2023-10-16T21:40:52.615Z" agent="Mozilla/5.0 (Macintosh; Intel Mac OS X 10_15_7) AppleWebKit/537.36 (KHTML, like Gecko) Chrome/116.0.0.0 Safari/537.36" version="22.0.4" etag="DhidoMzYwn0hD1-EpboW" type="github">
  <diagram name="Page-1" id="414pRWIfRTL82GwDEpZM">
    <mxGraphModel>
      <root>
        <mxCell id="0" />
        <mxCell id="1" parent="0" />
      </root>
    </mxGraphModel>
  </diagram>
</mxfile>
